# xmcd
#
# Track frame offsets: 
#        150
#        39365
#        64672
#        81475
#        110111
#        120496
#        152088
#        168191
#        173271
#        188494
#        193514
#        227584
#        230754
#        245624
#        258526
#        273599
#        287861
#        294617
#
# Disc length: 3958 seconds
#
# Revision: 0
# Processed by: cddbd v1.5.2PL0 Copyright (c) Steve Scherf et al.
# Submitted via: ExactAudioCopy v0.99pb5
#
DISCID=fd0f7412
DTITLE=Blues Traveler - 1989-11-02 New York, NY. Disc 2
DYEAR=1989
DGENRE=Blues
TTITLE0=01 Shotgun Shell
TTITLE1=02 As We Wonder
TTITLE2=03 Gotta Get Mean-
TTITLE3=04 Hey Joe-
TTITLE4=05 Gotta Get Mean-
TTITLE5=06 Bad To The Bone-
TTITLE6=07 Trust In Trust
TTITLE7=08 Bad To The Bone-
TTITLE8=09 And So It Goes
TTITLE9=10 Bad To The Bone
TTITLE10=11 Sweet Talkin' Hippie-
TTITLE11=12 Bad To The Bone-
TTITLE12=13 Hit The Road Jack-
TTITLE13=14 Crash Burn-
TTITLE14=15 Wouldn't It Make You Mad-
TTITLE15=16 Miss You-
TTITLE16=17 Bad To The Bone-
TTITLE17=18 Sweet Talkin' Hippie
EXTD=
EXTT0=
EXTT1=
EXTT2=
EXTT3=
EXTT4=
EXTT5=
EXTT6=
EXTT7=
EXTT8=
EXTT9=
EXTT10=
EXTT11=
EXTT12=
EXTT13=
EXTT14=
EXTT15=
EXTT16=
EXTT17=
PLAYORDER=
